<?xml version="1.0" encoding="UTF-8" standalone="no"?>
<svg
   xmlns:dc="http://purl.org/dc/elements/1.1/"
   xmlns:cc="http://creativecommons.org/ns#"
   xmlns:rdf="http://www.w3.org/1999/02/22-rdf-syntax-ns#"
   xmlns:svg="http://www.w3.org/2000/svg"
   xmlns="http://www.w3.org/2000/svg"
   xmlns:sodipodi="http://sodipodi.sourceforge.net/DTD/sodipodi-0.dtd"
   xmlns:inkscape="http://www.inkscape.org/namespaces/inkscape"
   version="1.1"
   id="Layer_1"
   x="0px"
   y="0px"
   width="1000"
   height="159.08583"
   viewBox="-200 -114.56 1000 159.08583"
   enable-background="new -200 -114.56 1000 529.119"
   xml:space="preserve"
   sodipodi:docname="Coldplay_2000.svg"
   inkscape:version="1.0.2 (e86c870879, 2021-01-15)"><metadata
   id="metadata19"><rdf:RDF><cc:Work
       rdf:about=""><dc:format>image/svg+xml</dc:format><dc:type
         rdf:resource="http://purl.org/dc/dcmitype/StillImage" /><dc:title></dc:title></cc:Work></rdf:RDF></metadata><defs
   id="defs17">
	
	
	
	
	
</defs><sodipodi:namedview
   pagecolor="#ffffff"
   bordercolor="#666666"
   borderopacity="1"
   objecttolerance="10"
   gridtolerance="10"
   guidetolerance="10"
   inkscape:pageopacity="0"
   inkscape:pageshadow="2"
   inkscape:window-width="1366"
   inkscape:window-height="705"
   id="namedview15"
   showgrid="false"
   inkscape:zoom="0.6779608"
   inkscape:cx="399.1291"
   inkscape:cy="64.089671"
   inkscape:window-x="-8"
   inkscape:window-y="-8"
   inkscape:window-maximized="1"
   inkscape:current-layer="Layer_1"
   inkscape:document-rotation="0" />

<g
   aria-label="COLDPLAY"
   id="text860"
   style="font-weight:bold;font-size:188.657px;font-family:'Albertus MT Std';-inkscape-font-specification:'Albertus MT Std Bold';letter-spacing:-1.99px;fill:#000000;stroke-width:3.56517;stop-color:#000000"
   transform="matrix(1.1051826,0,0,1.1051826,-31.681066,-56.998243)"><path
     d="m -39.482777,-46.612428 c -6.980309,-2.452541 -15.65853,-5.471053 -30.373776,-5.471053 -50.748737,0 -82.443107,37.354085 -82.443107,75.085485 0,25.468695 16.03584,68.859804 70.93503,68.859804 22.261526,0 35.090201,-6.225681 44.145737,-10.753449 l 1.131942,-21.884212 c -7.734937,5.848367 -19.997641,15.281217 -41.693196,15.281217 -33.203633,0 -52.069333,-24.902723 -52.069333,-53.767244 0,-31.505719 22.07287,-54.899186 53.578589,-54.899186 16.790473,0 28.487206,5.848366 36.788114,10.187477 z"
     style="fill:#000000;stroke-width:3.56517"
     id="path862" /><path
     d="m -30.865,18.474236 c 0,36.222143 28.2985499,73.198915 73.953543,73.198915 39.995284,0 73.953547,-28.109893 73.953547,-72.25563 0,-35.84483 -23.582128,-71.312345 -70.369064,-71.312345 -49.2394761,0 -77.538026,38.863341 -77.538026,70.36906 z m 23.7707819,-3.207169 c 0,-27.355265 18.2997291,-52.069331 46.7869351,-52.069331 33.014975,0 55.465158,32.0716892 55.465158,61.502181 0,22.072869 -14.715246,51.692017 -46.220965,51.692017 -26.97795,0 -56.0311281,-22.827497 -56.0311281,-61.124867 z"
     style="fill:#000000;stroke-width:3.56517"
     id="path864" /><path
     d="m 211.77619,64.129229 c -15.09256,6.037024 -29.24183,9.998821 -54.52187,12.262705 l 0.75463,-92.253272 c 0.18865,-20.940926 2.6412,-27.355264 5.47105,-34.712887 h -31.69437 c 2.26388,6.225681 4.90508,13.017333 4.90508,33.392288 V 45.26353 c 0,30.939747 -2.07523,36.4108 -5.65971,45.466336 h 69.04846 z"
     style="fill:#000000;stroke-width:3.56517"
     id="path866" /><path
     d="m 226.28771,47.716071 c 0,26.034665 -2.64119,34.146916 -5.65971,43.013795 h 34.14692 c 45.46634,0 73.57623,-32.637661 73.57623,-69.425775 0,-13.7719609 -3.77314,-28.8645208 -14.14928,-42.259168 -21.50689,-27.543921 -52.82395,-29.996462 -78.85862,-29.996462 -6.22568,0 -9.81016,0.377314 -14.71525,0.754628 1.69792,6.602995 5.65971,18.488386 5.65971,38.108713 z m 21.12959,-59.615612 c 0,-6.980309 0,-17.167786 1.13194,-25.846008 44.90037,6.225681 54.89919,37.35408515 54.89919,57.16307 0,22.261526 -12.82868,53.38993 -54.89919,57.540384 -1.13194,-11.31942 -1.13194,-16.601816 -1.13194,-32.63766 z"
     style="fill:#000000;stroke-width:3.56517"
     id="path868" /><path
     d="m 347.14734,44.508902 c 0,23.393467 -3.77314,36.4108 -6.41434,46.220964 h 33.01498 C 371.10678,79.78776 368.27692,61.676688 368.27692,50.734583 V 27.529772 l 5.47106,0.377314 c 17.92241,1.320599 46.40962,-8.112251 46.40962,-39.051999 0,-23.959438 -19.24302,-39.617969 -47.73022,-39.617969 h -30.75109 c 2.26388,5.282396 5.47105,12.828676 5.47105,37.920056 z m 21.12958,-69.991747 c 0,-4.716424 0.37732,-11.130762 0.75463,-15.847187 6.79165,0.754628 13.77196,1.88657 19.80899,8.112251 6.41433,6.602994 9.05553,15.469873 9.05553,23.3934673 0,25.4686947 -20.56361,29.2418347 -29.61915,30.7510907 z"
     style="fill:#000000;stroke-width:3.56517"
     id="path870" /><path
     d="m 514.27327,64.129229 c -15.09256,6.037024 -29.24184,9.998821 -54.52188,12.262705 l 0.75463,-92.253272 c 0.18866,-20.940926 2.6412,-27.355264 5.47105,-34.712887 H 434.2827 c 2.26388,6.225681 4.90508,13.017333 4.90508,33.392288 V 45.26353 c 0,30.939747 -2.07523,36.4108 -5.65971,45.466336 h 69.04846 z"
     style="fill:#000000;stroke-width:3.56517"
     id="path872" /><path
     d="m 591.89615,-51.328853 h -1.13194 L 536.24234,56.960263 c -11.69673,23.204811 -15.84719,28.29855 -20.56361,33.769603 h 34.52423 c -0.75463,-11.130763 4.71642,-23.393468 7.16896,-28.675864 l 7.16897,-15.281216 h 49.61679 l 8.30091,19.054356 c 5.09374,11.508077 5.84836,18.677043 5.84836,24.902724 L 661.8879,90.352552 C 656.6055,83.183586 650.00251,74.12805 639.81503,52.055182 Z M 590.3869,-7.7490868 606.80006,30.17097 h -34.33558 z"
     style="fill:#000000;stroke-width:3.56517"
     id="path874" /><path
     d="m 639.14537,-50.385568 c 6.22568,4.716425 9.24419,8.112251 16.03584,20.563613 l 31.69438,56.408442 V 66.58177 c 0,14.903903 -1.69792,18.8657 -3.77314,24.148096 h 28.67586 c -3.77314,-7.357623 -3.77314,-15.469874 -3.77314,-16.790473 V 24.888574 l 33.95826,-59.615611 c 1.3206,-2.075227 5.2824,-9.055536 10.56479,-15.847188 l -28.4872,-0.188657 c 0.37731,6.791652 -1.3206,11.508077 -7.35763,21.695555 L 697.44038,5.0795891 677.63139,-29.821955 c -3.58448,-6.414338 -6.9803,-12.640019 -6.22568,-20.940927 z"
     style="fill:#000000;stroke-width:3.56517"
     id="path876" /></g></svg>
